<svg xmlns="http://www.w3.org/2000/svg" style="display:none"
     fill="none" stroke="currentColor" stroke-width="1.33333"
     stroke-linecap="round" stroke-linejoin="round">
  <symbol id="cat-daily" viewBox="0 0 16 16">
    <title>日常騎乘</title>
  <circle cx="3.667" cy="11.667" r="2.333"/>
    <circle cx="12.333" cy="11.667" r="2.333"/>
    <circle cx="10" cy="3.333" r="0.667"/>
    <path d="M8 11.667V9.333L6 7.333l2.667-2L10 7.333h1.333"/>
  </symbol>
  <symbol id="cat-ebike" viewBox="0 0 16 16">
    <title>E-bike 電動輔助</title>
  <path d="M9.5 2 4 9.2h3.6L6.5 14 12 6.8H8.4L9.5 2Z"/>
  </symbol>
  <symbol id="cat-gravel" viewBox="0 0 16 16">
    <title>越野&amp;礫石公路</title>
  <path d="M4 14 6.8 2.6"/>
    <path d="M12 14 9.2 2.6"/>
    <path d="M8 4.6v1.7M8 8.6v1.7M8 12.6V14"/>
  </symbol>
  <symbol id="cat-mtb" viewBox="0 0 16 16">
    <title>登山車</title>
  <path d="M1.8 13.6 6.2 4.8l3.2 5.4 1.9-3.2 3.1 6.6Z"/>
  </symbol>
  <symbol id="cat-kids" viewBox="0 0 16 16">
    <title>親子/童車</title>
  <circle cx="5.2" cy="4.2" r="1.9"/>
    <path d="M2 14v-2.2a3.2 3.2 0 0 1 6.4 0V14"/>
    <circle cx="11.6" cy="7.2" r="1.5"/>
    <path d="M9.1 14v-1.4a2.5 2.5 0 0 1 5 0V14"/>
  </symbol>
  <symbol id="cat-new" viewBox="0 0 28 16">
    <title>新車上市</title>
  <rect x="1" y="2.6" width="26" height="10.8" rx="2"/>
    <text x="14" y="8.1" text-anchor="middle" dominant-baseline="central"
          font-family="Open Sans, system-ui, -apple-system, Helvetica, Arial, sans-serif" font-size="7.4" font-weight="800"
          fill="currentColor" stroke="none">NEW</text>
  </symbol>
  <symbol id="cat-new-square" viewBox="0 0 16 16">
    <title>新車上市（方形版）</title>
  <rect x="0.9" y="3.7" width="14.2" height="8.6" rx="1.5"/>
    <text x="8" y="8.2" text-anchor="middle" dominant-baseline="central"
          font-family="Open Sans, system-ui, -apple-system, Helvetica, Arial, sans-serif" font-size="5.4" font-weight="800" letter-spacing="-0.15"
          fill="currentColor" stroke="none">NEW</text>
  </symbol>
</svg>
